<svg width="72" height="72" viewBox="0 0 72 72" fill="none" xmlns="http://www.w3.org/2000/svg">
<path d="M69.12 0H2.88C1.287 0 0 1.287 0 2.88V69.12C0 70.713 1.287 72 2.88 72H69.12C70.713 72 72 70.713 72 69.12V2.88C72 1.287 70.713 0 69.12 0ZM36.099 36.549L18.819 51.039C18.351 51.435 17.64 51.102 17.64 50.49V44.847C17.64 44.64 17.739 44.433 17.901 44.298L27.783 36L17.901 27.702C17.8183 27.6367 17.7517 27.5532 17.7064 27.458C17.6612 27.3628 17.6384 27.2584 17.64 27.153V21.51C17.64 20.898 18.351 20.565 18.819 20.961L36.099 35.442C36.45 35.73 36.45 36.261 36.099 36.549ZM54.36 50.49C54.36 50.886 54.054 51.21 53.685 51.21H37.035C36.666 51.21 36.36 50.886 36.36 50.49V46.17C36.36 45.774 36.666 45.45 37.035 45.45H53.685C54.054 45.45 54.36 45.774 54.36 46.17V50.49Z" fill="#FF6B00"/>
</svg>
