<svg width="32" height="33" viewBox="0 0 32 33" fill="none" xmlns="http://www.w3.org/2000/svg">
<path d="M30.72 0.5H1.28C0.572 0.5 0 1.072 0 1.78V31.22C0 31.928 0.572 32.5 1.28 32.5H30.72C31.428 32.5 32 31.928 32 31.22V1.78C32 1.072 31.428 0.5 30.72 0.5ZM16.044 16.744L8.364 23.184C8.156 23.36 7.84 23.212 7.84 22.94V20.432C7.84 20.34 7.884 20.248 7.956 20.188L12.348 16.5L7.956 12.812C7.91923 12.783 7.88965 12.7458 7.86953 12.7035C7.84941 12.6612 7.83931 12.6148 7.84 12.568V10.06C7.84 9.788 8.156 9.64 8.364 9.816L16.044 16.252C16.2 16.38 16.2 16.616 16.044 16.744ZM24.16 22.94C24.16 23.116 24.024 23.26 23.86 23.26H16.46C16.296 23.26 16.16 23.116 16.16 22.94V21.02C16.16 20.844 16.296 20.7 16.46 20.7H23.86C24.024 20.7 24.16 20.844 24.16 21.02V22.94Z" fill="white"/>
</svg>
