<svg width="20" height="20" viewBox="0 0 20 20" fill="none" xmlns="http://www.w3.org/2000/svg">
<circle cx="10" cy="10" r="9.4" stroke="#FF6B00" stroke-width="1.2"/>
<path d="M9.07798 12.2539L14.0106 6.21381C14.127 6.07127 14.2628 6 14.418 6C14.5732 6 14.709 6.07127 14.8254 6.21381C14.9418 6.35635 15 6.52573 15 6.72196C15 6.91819 14.9418 7.08734 14.8254 7.2294L9.48539 13.7862C9.36898 13.9287 9.23318 14 9.07798 14C8.92277 14 8.78697 13.9287 8.67056 13.7862L6.16789 10.7216C6.05149 10.5791 5.99561 10.4099 6.00027 10.2142C6.00492 10.0184 6.06565 9.84903 6.18244 9.70601C6.29923 9.563 6.43756 9.49173 6.59742 9.4922C6.75728 9.49268 6.89541 9.56395 7.01181 9.70601L9.07798 12.2539Z" fill="#FF6B00"/>
</svg>
