<svg width="750" height="718" viewBox="0 0 750 718" fill="none" xmlns="http://www.w3.org/2000/svg">
<path d="M154.125 580.05L121.616 466.929C118.515 455.348 117.641 447.206 129.926 442.047C159.551 438.184 303.604 437.936 303.604 437.936C297.731 412.408 291.026 385.426 271.755 366.944C257.486 353.256 240.202 346.506 189.997 323.1C187.003 321.438 183.685 320.382 180.247 319.998C173.239 319.639 172.47 324.381 167.809 327.25C165.667 328.149 163.388 328.712 161.059 328.919C132.146 335.099 105.099 347.548 82.0012 365.307C67.0012 377.344 59.8087 401.853 55.0949 418.96C40.6687 471.302 44.3174 527.191 52.5411 580.104C52.5223 580.308 52.5546 580.513 52.6354 580.703C52.7162 580.893 52.8432 581.061 53.0057 581.194C53.1682 581.327 53.3616 581.421 53.5698 581.468C53.7779 581.515 53.9948 581.514 54.2024 581.465C69.4837 580.732 154.125 580.05 154.125 580.05Z" fill="#FF6B00"/>
<path d="M297.098 284.507C294.435 290.821 288.99 297.273 281.899 296.766C277.735 309.293 268.935 319.933 257.152 326.684C245.369 333.435 231.416 335.834 217.916 333.427L212.771 343.978C215.606 345.296 215.524 349.446 213.701 351.97C212.002 354.029 209.69 355.546 207.071 356.322C204.452 357.097 201.649 357.095 199.031 356.314C193.82 354.629 189.287 351.429 186.068 347.159C183.393 343.828 181.16 340.192 179.419 336.335C178.352 334.279 177.863 331.993 178.001 329.701C178.444 327.267 178.331 327.935 187.08 309.374C182.376 303.855 179.549 297.091 178.976 289.988C188.051 286.653 192.476 276.705 193.845 267.526C195.214 258.346 194.558 248.668 197.899 239.983C203.055 226.589 216.818 217.959 230.723 212.829C237.571 210.288 244.817 208.872 252.158 208.639C259.569 208.41 266.86 210.478 272.944 214.537C280.911 220.597 287.269 228.372 291.503 237.23C296.22 247.117 300.836 255.851 300.784 266.944C300.727 272.969 299.476 278.928 297.098 284.507Z" fill="white"/>
<path d="M369.022 243.621C367.871 240.477 367.149 237.205 366.874 233.884C366.869 229.748 368.192 225.71 370.663 222.317C373.135 218.924 376.636 216.34 380.692 214.915C382.995 214.086 384.157 215.392 385.151 217.55C388.624 226.475 392.554 235.216 396.941 243.775C398.22 245.611 399.255 247.593 400.024 249.673C400.394 250.719 400.5 251.835 400.33 252.927C400.16 254.02 399.721 255.058 399.049 255.956C397.884 256.958 396.485 257.679 394.969 258.057C393.453 258.435 391.865 258.459 390.337 258.128C377.126 257.004 373.189 255.274 369.022 243.621Z" fill="white"/>
<path d="M488.885 272.056L494.113 286.876C497.671 288.442 501.65 288.91 505.498 288.215C509.346 287.519 512.873 285.695 515.589 282.995C520.992 277.521 524.914 270.866 527.015 263.609C527.379 262.832 527.489 261.968 527.33 261.131C527.172 260.293 526.752 259.522 526.127 258.917C504.485 229.974 516.163 194.803 498.53 164.026C494.632 157.061 488.815 151.252 481.712 147.228C476.052 144.659 469.863 143.334 463.599 143.351C446.69 143.002 430.266 148.771 417.605 159.506C396.695 177.722 398.6 203.458 404.357 227.666C409.46 249.119 422.465 269.784 444.879 277.865C457.014 282.209 479.364 282.259 488.885 272.056Z" fill="white"/>
<path d="M394.851 244.389C394.851 248.104 396.393 251.667 399.137 254.294C401.881 256.921 405.603 258.397 409.484 258.397C413.364 258.397 417.086 256.921 419.83 254.294C422.574 251.667 424.116 248.104 424.116 244.389C424.116 240.674 422.574 237.111 419.83 234.484C417.086 231.857 413.364 230.381 409.484 230.381C405.603 230.381 401.881 231.857 399.137 234.484C396.393 237.111 394.851 240.674 394.851 244.389Z" fill="white"/>
<path d="M425.625 216.759C423.637 209.579 419.591 210.581 416.801 210.954C414.996 211.425 413.082 211.348 411.324 210.732C409.567 210.117 408.053 208.994 406.991 207.519C406.724 207.132 406.311 206.86 405.839 206.758C405.367 206.657 404.872 206.734 404.458 206.974C404.043 207.213 403.742 207.597 403.617 208.045C403.491 208.492 403.552 208.969 403.785 209.375C405.081 211.246 406.899 212.733 409.032 213.665C411.166 214.598 413.53 214.94 415.856 214.652C415.444 216.509 415.394 218.424 415.71 220.299C417.405 228.944 428.197 226.093 425.625 216.759Z" fill="#121212"/>
<path d="M477.313 207.481C475.325 200.301 471.279 201.302 468.489 201.676C466.684 202.151 464.769 202.075 463.01 201.46C461.252 200.844 459.738 199.718 458.679 198.24C458.552 198.038 458.384 197.862 458.185 197.723C457.987 197.583 457.762 197.482 457.522 197.426C457.283 197.369 457.035 197.359 456.791 197.394C456.548 197.43 456.314 197.511 456.103 197.633C455.892 197.755 455.709 197.916 455.563 198.106C455.417 198.296 455.311 198.512 455.253 198.741C455.194 198.97 455.183 199.208 455.22 199.441C455.257 199.674 455.342 199.898 455.469 200.1C456.766 201.97 458.584 203.456 460.718 204.388C462.851 205.32 465.215 205.661 467.54 205.373C467.129 207.231 467.081 209.146 467.398 211.02C469.1 219.665 479.893 216.815 477.313 207.481Z" fill="#121212"/>
<path d="M601.539 259.1C593.067 254.673 583.51 252.502 573.864 252.814C557.958 253.187 542.167 255.507 526.876 259.718C527.158 267.566 524.254 275.214 518.773 281.057C515.986 283.891 512.477 285.982 508.591 287.124C504.704 288.267 500.574 288.421 496.606 287.572C495.617 287.386 494.713 286.912 494.015 286.215C493.265 285.117 493.426 285.232 491.54 274.189C486.775 278.282 483.484 283.713 482.139 289.705C480.264 297.466 469.981 302.27 463.46 306.851C430.029 331.338 415.573 336.834 394.606 349.931C396.345 337.717 399.319 325.694 403.486 314.031C409.861 294.645 404.611 275.237 398.139 255.84C392.037 257.791 385.455 257.886 379.295 256.113C376.245 255.182 373.566 253.376 371.622 250.941C369.677 248.506 368.559 245.559 368.42 242.496C363.142 250.742 357.265 258.622 350.833 266.079C345.039 272.638 339.163 279.696 337.906 288.466C336.266 302.457 336.348 316.583 338.15 330.555C340.06 357.258 348.054 383.236 361.573 406.663C362.316 408.462 363.709 409.944 365.499 410.842C367.288 411.739 369.355 411.992 371.323 411.553C406.153 404.229 441.823 381.925 469.01 359.695C470.911 385.808 482.549 410.397 501.804 428.982C505.395 432.641 509.314 435.991 513.515 438.995C516.796 441.282 522.024 442.585 524.214 445.899C516.239 454.509 507.537 462.475 498.196 469.718L466.186 496.137C458.939 501.427 452.725 507.901 447.83 515.261C442.72 525.16 439.716 535.933 438.995 546.953C442.337 547.356 445.553 548.43 448.431 550.106C451.31 551.781 453.786 554.02 455.698 556.675C457.61 559.33 458.914 562.342 459.525 565.513C460.137 568.685 460.041 571.944 459.245 575.077C474.399 569.998 491.12 573.57 504.793 563.209C508.746 560.033 512.357 556.485 515.57 552.618C587.945 470.407 599.398 439.928 602.416 435.584C609.25 429.869 615.691 423.736 621.699 417.225C622.166 416.744 622.528 416.179 622.765 415.563C623.001 414.946 623.106 414.291 623.075 413.635C623.604 384.219 624.534 354.863 625.1 325.303C625.449 302.74 623.585 272.753 601.539 259.1Z" fill="#FF6B00"/>
<path d="M454.767 556.138C456.558 558.222 457.849 560.658 458.55 563.272C459.25 565.887 459.343 568.617 458.821 571.269C458.107 573.729 456.926 576.041 455.337 578.09C452.129 583.129 448.483 587.899 444.436 592.35C441.191 577.223 436.899 562.319 431.588 547.737C431.588 547.234 431.183 546.574 431.588 546.147C431.858 545.94 432.176 545.799 432.515 545.737C432.854 545.674 433.204 545.692 433.534 545.788C441.635 546.827 449.124 550.477 454.767 556.138Z" fill="white"/>
<path d="M184.488 282.12C184.488 286.714 186.395 291.12 189.788 294.368C193.181 297.617 197.783 299.442 202.582 299.442C207.381 299.442 211.983 297.617 215.376 294.368C218.769 291.12 220.676 286.714 220.676 282.12C220.676 277.526 218.769 273.12 215.376 269.872C211.983 266.623 207.381 264.798 202.582 264.798C197.783 264.798 193.181 266.623 189.788 269.872C186.395 273.12 184.488 277.526 184.488 282.12Z" fill="white"/>
<path d="M284.252 256.009C284.047 255.878 283.817 255.787 283.575 255.741C283.333 255.695 283.084 255.696 282.843 255.742C282.601 255.788 282.371 255.88 282.166 256.011C281.962 256.143 281.786 256.312 281.65 256.508C281.053 257.547 280.231 258.453 279.24 259.164C278.249 259.875 277.11 260.376 275.901 260.633C271.116 261.71 269.188 260.148 266.822 262.568C263.072 266.424 263.552 276.537 269.642 275.79C274.487 275.194 275.143 268.721 273.7 264.575C275.937 264.572 278.135 264.01 280.076 262.945C282.016 261.88 283.633 260.348 284.766 258.501C284.903 258.305 284.999 258.085 285.047 257.854C285.096 257.622 285.096 257.384 285.048 257.153C285.001 256.922 284.906 256.702 284.769 256.505C284.632 256.309 284.457 256.14 284.252 256.009Z" fill="black"/>
<path d="M232.802 251.334C232.597 251.203 232.367 251.112 232.125 251.066C231.883 251.02 231.634 251.021 231.392 251.067C231.151 251.113 230.921 251.205 230.716 251.336C230.511 251.468 230.336 251.637 230.199 251.833C229.604 252.874 228.784 253.781 227.793 254.493C226.802 255.206 225.664 255.708 224.454 255.965C219.669 257.042 217.742 255.481 215.376 257.9C211.626 261.756 212.106 271.869 218.199 271.122C223.041 270.526 223.697 264.054 222.253 259.907C224.492 259.902 226.692 259.337 228.633 258.268C230.574 257.199 232.189 255.662 233.319 253.811C233.591 253.416 233.69 252.935 233.593 252.471C233.496 252.007 233.212 251.598 232.802 251.334Z" fill="black"/>
<path d="M310.071 253.094C309.726 252.21 309.191 251.405 308.502 250.73C307.813 250.055 306.985 249.525 306.07 249.173C302.958 248.125 299.523 249.82 295.874 251.611C293.406 252.824 296.568 254.903 294.423 269.952C293.748 274.688 292.769 283.533 287.916 287.622C285.486 290.071 279.524 292.735 277.675 301.056C277.146 303.415 280.188 303.074 281.11 303.11C288.213 302.582 294.936 302.097 301.045 296.648C306.843 291.034 310.79 283.913 312.395 276.169C313.999 268.426 313.191 260.401 310.071 253.094Z" fill="#121212"/>
<path d="M410.397 252.327C410.348 251.854 410.105 251.419 409.721 251.117C409.337 250.816 408.844 250.673 408.35 250.719L407.768 250.765L386.27 201.697C386.393 201.599 386.518 201.504 386.645 201.41C386.842 201.269 387.008 201.091 387.133 200.888C387.259 200.686 387.341 200.461 387.376 200.228C387.411 199.994 387.397 199.757 387.336 199.528C387.275 199.3 387.167 199.086 387.02 198.897C386.872 198.708 386.687 198.549 386.475 198.429C386.263 198.309 386.029 198.23 385.785 198.197C385.541 198.164 385.293 198.177 385.054 198.235C384.816 198.294 384.592 198.397 384.395 198.538C381.431 200.663 379.377 203.749 378.62 207.219C375.676 217.04 376.677 227.56 381.425 236.71C386.836 247.48 396.425 255.45 408.725 254.283C409.217 254.234 409.669 254.001 409.982 253.635C410.295 253.268 410.444 252.798 410.397 252.327Z" fill="#121212"/>
<path d="M571.309 127.667C564.75 93.6628 527.55 75.0631 498.375 84.8027C487.65 88.3927 479.329 99.9705 476.168 110.134L484.515 109.667C486.03 107.469 487.811 105.451 489.822 103.654C496.283 97.9924 507.165 100.085 513.327 105.244C519.157 110.846 523.59 117.636 526.294 125.108C532.575 139.733 535.575 155.368 540.679 170.381C546.878 188.809 553.2 207.66 552.432 227.057C561.234 217.26 568.248 206.112 573.177 194.082C581.438 173.95 575.363 148.227 571.309 127.667Z" fill="black"/>
<path d="M550.552 226.988C551.302 207.849 544.999 189.081 538.89 170.93C533.797 155.952 530.756 140.224 524.554 125.789C521.93 118.543 517.638 111.954 511.995 106.511C506.531 101.941 496.755 100.189 491.059 104.999C489.186 106.711 487.513 108.612 486.067 110.668C485.79 111.063 485.36 111.337 484.872 111.428C484.384 111.52 483.878 111.422 483.465 111.156C483.052 110.891 482.767 110.479 482.671 110.012C482.575 109.544 482.677 109.06 482.955 108.665C484.565 106.372 486.434 104.255 488.527 102.354C495.986 96.0495 507.829 98.2609 514.556 103.894C520.618 109.71 525.232 116.759 528.056 124.518C534.334 139.122 537.382 154.904 542.452 169.824C548.122 186.675 553.969 204.047 554.344 221.997C561.466 213.324 567.221 203.697 571.425 193.425C579.382 174.039 573.491 148.55 569.464 128C563.089 95.432 528.24 77.2845 498.964 86.5072C488.572 90.1762 480.78 101.585 477.964 110.643C477.9 110.875 477.788 111.093 477.634 111.284C477.48 111.474 477.288 111.633 477.069 111.751C476.85 111.869 476.609 111.943 476.359 111.97C476.109 111.997 475.857 111.975 475.616 111.906C475.375 111.838 475.151 111.724 474.957 111.571C474.763 111.417 474.604 111.229 474.488 111.015C474.371 110.802 474.301 110.569 474.281 110.329C474.261 110.089 474.292 109.848 474.371 109.62C477.544 99.4133 485.996 87.2576 497.726 83.1183C529.327 73.1632 566.351 92.7 573.157 127.34C577.331 148.603 583.26 174.434 574.924 194.739C569.921 206.958 562.797 218.28 553.852 228.226C553.599 228.51 553.26 228.712 552.881 228.802C552.503 228.893 552.105 228.869 551.741 228.732C551.378 228.596 551.069 228.355 550.855 228.042C550.642 227.729 550.536 227.361 550.552 226.988Z" fill="#121212"/>
<path d="M470.731 225.977C470.731 230.681 472.683 235.193 476.158 238.519C479.633 241.846 484.346 243.715 489.26 243.715C494.174 243.715 498.887 241.846 502.362 238.519C505.836 235.193 507.788 230.681 507.788 225.977C507.788 221.272 505.836 216.76 502.362 213.434C498.887 210.107 494.174 208.239 489.26 208.239C484.346 208.239 479.633 210.107 476.158 213.434C472.683 216.76 470.731 221.272 470.731 225.977Z" fill="white"/>
<path d="M427.371 239.984C427.052 239.984 426.738 239.905 426.459 239.756C426.18 239.606 425.946 239.391 425.779 239.131C425.611 238.87 425.516 238.573 425.502 238.268C425.488 237.962 425.556 237.658 425.699 237.385C429.651 229.835 433.07 222.039 435.932 214.05C436.182 213.444 436.31 212.799 436.307 212.147C434.795 209.234 432.89 206.523 430.641 204.084C430.324 203.722 430.168 203.255 430.209 202.784C430.249 202.313 430.482 201.876 430.857 201.568C431.232 201.26 431.718 201.106 432.211 201.14C432.703 201.174 433.162 201.392 433.487 201.747C435.454 203.946 437.224 206.3 438.779 208.784C439.404 209.709 439.829 210.746 440.027 211.831C440.082 213.008 439.883 214.182 439.442 215.281C436.531 223.393 433.056 231.309 429.04 238.975C428.887 239.276 428.65 239.529 428.355 239.707C428.061 239.885 427.72 239.981 427.371 239.984Z" fill="#121212"/>
<path d="M410.401 206.388C410.133 206.39 409.868 206.337 409.624 206.233C409.38 206.129 409.161 205.976 408.984 205.785C408.806 205.593 408.673 205.368 408.594 205.123C408.515 204.878 408.492 204.621 408.526 204.367C409.317 198.422 413.993 194.16 422.044 192.038C422.524 191.912 423.037 191.974 423.469 192.209C423.902 192.445 424.219 192.836 424.351 193.295C424.482 193.754 424.418 194.245 424.172 194.659C423.926 195.073 423.518 195.377 423.038 195.503C416.472 197.23 412.838 200.367 412.246 204.819C412.189 205.25 411.97 205.646 411.631 205.935C411.291 206.223 410.854 206.384 410.401 206.388Z" fill="#121212"/>
<path d="M470.12 249.739C469.202 243.402 467.328 237.228 464.555 231.408C465.294 231.446 466.034 231.431 466.771 231.365C467.268 231.322 467.727 231.091 468.047 230.724C468.366 230.356 468.521 229.883 468.475 229.407C468.43 228.931 468.189 228.491 467.806 228.185C467.422 227.879 466.927 227.732 466.43 227.775C464.107 227.982 461.773 227.506 459.74 226.411C459.525 226.285 459.286 226.202 459.036 226.167C458.787 226.132 458.533 226.145 458.29 226.206C458.046 226.267 457.818 226.374 457.618 226.521C457.419 226.669 457.252 226.853 457.129 227.063C457.005 227.273 456.927 227.505 456.899 227.744C456.872 227.984 456.894 228.226 456.967 228.457C457.039 228.688 457.159 228.903 457.32 229.089C457.48 229.274 457.678 229.427 457.902 229.538C458.777 230.008 459.697 230.396 460.651 230.694C458.9 235.34 455.908 239.466 451.972 242.661C448.037 245.855 443.296 248.007 438.222 248.902C437.733 248.988 437.299 249.256 437.016 249.648C436.734 250.04 436.625 250.523 436.715 250.991C436.804 251.46 437.084 251.875 437.494 252.146C437.903 252.416 438.408 252.52 438.897 252.435C443.886 251.554 448.599 249.594 452.676 246.705C456.753 243.816 460.088 240.073 462.425 235.763C464.675 241.205 469.67 257.191 463.97 259.098C458.737 259.743 453.436 258.563 449.037 255.773C448.832 255.633 448.6 255.533 448.354 255.48C448.108 255.427 447.853 255.422 447.605 255.466C447.357 255.509 447.121 255.6 446.911 255.733C446.7 255.866 446.52 256.039 446.381 256.24C446.241 256.441 446.146 256.667 446.1 256.904C446.054 257.142 446.059 257.386 446.113 257.621C446.168 257.857 446.272 258.08 446.419 258.276C446.565 258.472 446.752 258.638 446.967 258.764C452.224 262.083 458.57 263.44 464.802 262.58C471.083 260.584 470.465 253.587 470.12 249.739Z" fill="#121212"/>
<path d="M528.028 131.702C519.28 121.052 507.667 112.885 494.436 108.076C476.691 101.84 456.793 104.4 438.759 109.821C406.344 119.571 387.009 144.737 384.621 177.011C381.707 216.631 401.833 253.45 406.138 292.731C421.299 278.178 420.812 278.903 421.416 277.409C421.619 276.424 421.535 275.404 421.172 274.462C416.878 258.246 409.134 243.398 404.964 227.095C400.743 210.842 401.148 193.803 406.138 177.751C405.91 181.176 406.392 184.61 407.555 187.856C408.719 191.101 410.541 194.095 412.918 196.664C415.294 199.233 418.178 201.327 421.403 202.825C424.628 204.323 428.131 205.196 431.709 205.394C433.007 205.394 432.519 205.394 433.656 204.773L447.268 198.372C444.987 198.46 442.708 198.147 440.544 197.449C438.936 196.749 437.447 195.82 436.127 194.696C433.087 192.455 430.363 189.848 428.023 186.938C424.948 183.082 425.548 179.488 425.143 174.793C428.698 181.535 434.753 186.764 442.123 189.458C449.426 192.187 457.221 193.506 465.058 193.339C469.369 193.185 473.683 193.535 477.906 194.383C487.509 197.022 491.807 205.512 493.656 214.168C498.002 234.38 501.478 255.64 495.358 275.424C503.631 271.346 513.456 263.125 516.632 254.67C517.564 251.202 517.893 247.611 517.603 244.04C517.603 240.809 519.512 231.256 514.603 231.511C508.851 231.806 504.103 227.103 501.272 222.317C498.237 217.333 496.482 211.731 496.151 205.971C495.82 200.211 496.922 194.458 499.367 189.185C501.943 183.973 506.082 179.614 511.257 176.663C516.432 173.713 522.408 172.306 528.422 172.621C530.662 172.702 532.853 173.267 534.832 174.275C536.811 175.283 538.526 176.707 539.848 178.44C539.376 161.61 539.739 145.646 528.028 131.702Z" fill="black"/>
<path d="M529.501 130.59C520.43 119.775 508.553 111.429 495.057 106.386C479.052 101.001 459.92 101.568 438.196 108.113C405.425 117.953 385.216 143.022 382.752 176.886C379.786 216.807 399.983 253.806 404.273 292.922C404.311 293.259 404.448 293.579 404.667 293.845C404.887 294.111 405.181 294.311 405.514 294.424C405.848 294.537 406.208 294.557 406.554 294.481C406.899 294.406 407.215 294.239 407.465 293.999L420.878 281.115C421.971 280.22 422.792 279.061 423.256 277.758C423.523 276.512 423.431 275.221 422.99 274.021C421.813 269.669 420.436 265.369 418.865 261.133C436.223 281.596 463.977 289.135 487.553 273.881L489.698 278.907C489.38 280.384 489.453 281.913 489.912 283.356C490.37 284.798 491.199 286.108 492.323 287.164C499.073 293.385 511.002 290.567 517.336 284.098C522.586 278.62 530.761 266.507 529.64 259.115C529.58 258.733 529.393 258.379 529.107 258.107C518.543 243.348 519.672 246.209 519.488 244.016C519.263 232.826 518.855 220.972 518.232 207.775C518.204 207.301 517.983 206.857 517.618 206.537C517.252 206.217 516.77 206.047 516.275 206.062C516.029 206.073 515.787 206.13 515.564 206.23C515.341 206.33 515.141 206.471 514.975 206.645C514.809 206.819 514.68 207.022 514.596 207.244C514.512 207.465 514.475 207.701 514.486 207.936C515.105 221.101 515.513 232.926 515.746 244.195C516.018 247.513 515.725 250.851 514.876 254.079C511.327 261.423 505.56 267.58 498.32 271.756C502.992 252.395 499.358 231.803 495.503 213.824C493.002 202.217 487.253 195.106 478.302 192.643C473.944 191.738 469.482 191.376 465.027 191.566C457.431 191.695 449.88 190.418 442.79 187.804C435.853 185.276 430.155 180.354 426.818 174.007C426.623 173.634 426.298 173.338 425.899 173.17C425.5 173.002 425.052 172.972 424.633 173.085C424.214 173.199 423.849 173.449 423.601 173.792C423.353 174.135 423.237 174.55 423.275 174.966C423.683 179.704 423.11 183.682 426.541 188.062C429.642 191.882 436.22 198.157 440.821 199.435L432.721 203.244C431.922 203.682 432.207 203.643 431.645 203.621C428.327 203.418 425.084 202.591 422.101 201.187C419.118 199.783 416.453 197.83 414.259 195.439C412.065 193.048 410.384 190.267 409.314 187.254C408.243 184.242 407.803 181.056 408.02 177.881C408.047 177.442 407.906 177.01 407.623 176.664C407.339 176.319 406.934 176.085 406.482 176.007C406.031 175.929 405.565 176.011 405.173 176.24C404.782 176.468 404.491 176.826 404.356 177.245C391.231 218.958 411.721 246.173 419.423 275.094C419.631 275.632 419.718 276.206 419.678 276.778C419.277 277.765 419.828 277.069 407.562 288.848C402.492 251.174 383.705 214.818 386.502 177.152C388.857 144.842 408.11 120.925 439.332 111.552C460.268 105.244 478.602 104.652 493.778 109.757C506.644 114.577 517.963 122.544 526.606 132.862C536.037 143.934 540.155 160.243 537.41 177.996C537.374 178.229 537.386 178.467 537.446 178.696C537.506 178.924 537.613 179.14 537.76 179.329C537.907 179.518 538.091 179.678 538.303 179.799C538.514 179.92 538.748 180 538.992 180.035C539.236 180.069 539.484 180.057 539.723 180C539.962 179.942 540.187 179.84 540.385 179.7C540.583 179.559 540.75 179.382 540.876 179.18C541.003 178.977 541.086 178.753 541.122 178.52C544.013 159.755 539.581 142.412 529.501 130.59ZM518.461 255.123C518.827 253.759 519.105 252.374 519.293 250.977C521.543 254 523.793 257.029 525.987 260.095C526.595 265.746 519.091 276.968 514.583 281.635C509.232 287.103 500.877 288.151 496.673 285.818C496.61 285.559 495.762 283.628 490.673 271.673C492.324 270.418 493.889 269.064 495.361 267.62C494.896 270.077 494.293 272.509 493.557 274.904C493.454 275.241 493.455 275.6 493.563 275.936C493.67 276.271 493.878 276.57 494.16 276.794C494.443 277.018 494.788 277.157 495.153 277.195C495.517 277.233 495.886 277.168 496.212 277.008C505.182 272.61 515.075 264.192 518.465 255.123H518.461ZM405.526 187.757C407.301 193.168 410.759 197.931 415.439 201.408C420.119 204.885 425.797 206.911 431.712 207.215C432.207 207.275 432.71 207.235 433.188 207.097C433.665 206.958 434.107 206.724 434.483 206.41L448.1 200.01C448.487 199.829 448.797 199.526 448.979 199.152C449.16 198.778 449.201 198.356 449.096 197.956C448.99 197.556 448.744 197.203 448.399 196.957C448.053 196.711 447.63 196.585 447.2 196.603C445.209 196.684 443.219 196.424 441.323 195.834C436.741 193.297 432.73 189.913 429.526 185.879C428.528 184.631 427.856 183.173 427.568 181.625C431.255 185.896 436.036 189.179 441.443 191.153C448.997 193.932 457.041 195.289 465.132 195.149C469.242 194.975 473.357 195.305 477.38 196.129C484.767 198.157 489.627 204.357 491.821 214.549C495.053 229.627 498.132 246.532 496.126 262.799C474.376 288.051 434.45 284.367 414.695 250.119C406.302 228.403 400.921 211.279 405.526 187.757Z" fill="#111111"/>
<path d="M508.055 175.382C501.41 156.8 494.18 138.789 477.058 127.204C470.344 122.606 462.743 119.33 454.697 117.565C446.651 115.8 438.318 115.581 430.183 116.922C420.386 118.705 411.341 123.174 404.147 129.785C396.954 136.397 391.921 144.866 389.66 154.165C389.66 155.174 388.73 154.165 388.284 155.134C393.572 101.887 474.058 86.206 503.57 131.314C511.208 143 516.461 155.966 519.05 169.526C516.891 169.707 514.795 170.321 512.9 171.33C511.005 172.339 509.355 173.72 508.055 175.382Z" fill="white"/>
<path d="M504.581 201.553C504.699 205.515 505.419 209.424 506.699 213.055C507.979 216.686 509.793 219.967 512.038 222.709C514.283 225.45 516.913 227.598 519.777 229.028C522.641 230.458 525.682 231.141 528.724 231.039C531.767 230.937 534.75 230.052 537.503 228.434C540.255 226.816 542.722 224.497 544.761 221.612C546.8 218.727 548.37 215.333 549.382 211.625C550.393 207.917 550.825 203.969 550.654 200.009C550.536 196.047 549.816 192.138 548.536 188.507C547.256 184.876 545.441 181.595 543.197 178.853C540.952 176.112 538.322 173.964 535.458 172.534C532.594 171.104 529.553 170.421 526.511 170.523C523.468 170.625 520.485 171.51 517.732 173.128C514.98 174.746 512.513 177.065 510.474 179.95C508.435 182.835 506.865 186.229 505.853 189.937C504.842 193.645 504.409 197.593 504.581 201.553Z" fill="white"/>
<path d="M520.619 167.889C517.913 154.575 512.667 141.852 505.143 130.359C474.596 83.7393 391.848 100.113 386.403 154.961C386.111 157.916 391.278 157.184 391.511 154.419C393.787 145.535 398.661 137.456 405.562 131.128C412.462 124.801 421.104 120.487 430.473 118.692C446.418 116.173 462.757 119.754 475.968 128.665C491.088 138.953 498.251 154.128 504.689 171.579C486.093 180.368 482.081 214.817 504.314 229.637C515.189 236.54 535.038 234.386 543.588 225.778C561.074 208.765 554.047 166.126 520.619 167.889ZM478.124 125.732C464.091 116.268 446.732 112.47 429.798 115.159C416.068 117.774 403.933 125.388 395.951 136.397C400.216 128.579 406.525 121.952 414.262 117.162C442.717 100.024 482.917 103.204 501.959 132.265C509.117 143.322 514.174 155.504 516.896 168.248C513.931 168.673 511.01 169.342 508.166 170.248C501.708 152.797 494.024 136.548 478.124 125.732ZM528.941 228.854C517.271 229.264 507.303 216.914 506.729 201.358C505.811 176.555 527.842 162.945 541.934 179.984C556.124 197.158 547.837 228.212 528.948 228.854H528.941Z" fill="#121212"/>
<path d="M546.682 200.547C546.284 189.748 539.182 178.681 528.397 179.029C517.612 179.377 511.353 190.876 511.75 201.732C512.238 214.911 521.2 223.541 530.035 223.247C540.775 222.881 547.087 211.396 546.682 200.547Z" fill="black"/>
<path d="M442.154 268.132C438.652 271.158 435.363 276.949 436.75 281.35C431.125 284.998 423.809 285.906 418.964 281.056C418.621 280.712 418.148 280.512 417.651 280.502C417.154 280.491 416.673 280.669 416.313 280.998C415.953 281.327 415.745 281.78 415.734 282.256C415.723 282.732 415.909 283.192 416.253 283.537C422.347 289.64 431.527 289.033 438.783 284.366C444.73 289.352 453.997 283.382 456.085 276.615C456.829 274.872 456.91 272.935 456.314 271.141C455.717 269.348 454.481 267.811 452.822 266.801C451.163 265.791 449.186 265.37 447.236 265.614C445.286 265.857 443.488 266.748 442.154 268.132Z" fill="black"/>
<path d="M378.774 232.577C378.469 232.954 378.02 233.199 377.526 233.259C377.033 233.319 376.534 233.188 376.141 232.897C375.748 232.605 375.492 232.175 375.429 231.703C375.366 231.23 375.502 230.753 375.807 230.376L378.496 227.059L381.462 229.26L378.774 232.577Z" fill="#121212"/>
<path d="M731.251 579.249H649.385C663.117 548.558 673.46 527.32 677.356 505.823C680.6 487.941 679.385 468.698 670.025 452.87C663.085 441.813 654.023 432.113 643.317 424.279C642.136 423.371 629.607 414.256 625.317 411.599C627.391 373.79 625.962 368.997 627.069 325.08C627.507 300.952 625.134 271.482 602.589 257.524C593.865 252.96 584.025 250.714 574.089 251.019C558.099 250.556 541.625 255.546 527.465 257.359C527.217 257.385 526.977 257.459 526.758 257.575C526.54 257.691 526.349 257.848 526.195 258.036C526.041 258.225 525.928 258.441 525.862 258.671C525.796 258.902 525.78 259.143 525.813 259.38C525.846 259.617 525.928 259.845 526.054 260.051C526.18 260.258 526.349 260.437 526.549 260.581C526.749 260.724 526.977 260.827 527.219 260.885C527.461 260.943 527.713 260.953 527.96 260.916C530.479 260.587 532.988 260.195 535.486 259.742C535.553 273.511 532.845 287.164 527.51 299.95C521.345 295.582 514.977 291.481 508.426 287.662C506.404 287.481 504.367 287.534 502.359 287.82C494.806 292.648 489.2 300.155 483.582 307.087C482.648 301.681 482.844 296.15 484.161 290.817C485.477 285.484 487.887 280.454 491.251 276.02C491.396 275.829 491.5 275.612 491.557 275.383C491.614 275.154 491.623 274.916 491.585 274.683C491.546 274.45 491.459 274.227 491.331 274.026C491.202 273.825 491.033 273.65 490.833 273.512C490.634 273.374 490.408 273.274 490.168 273.219C489.929 273.165 489.68 273.156 489.437 273.193C489.194 273.23 488.96 273.313 488.751 273.436C488.541 273.559 488.358 273.721 488.214 273.912C484.033 279.427 481.212 285.778 479.964 292.487C435.935 326.233 418.321 333.564 397.017 346.47C402.069 315.635 412.107 304.973 408.316 290.739C408.191 290.28 407.881 289.887 407.455 289.645C407.028 289.404 406.519 289.335 406.039 289.452C405.559 289.569 405.146 289.864 404.892 290.271C404.638 290.678 404.563 291.165 404.682 291.625C406.617 298.881 404.131 306.391 401.682 313.524C395.261 331.856 391.651 350.983 390.965 370.307C390.952 370.783 391.136 371.245 391.478 371.591C391.82 371.936 392.292 372.138 392.789 372.151C393.287 372.164 393.769 371.987 394.13 371.659C394.491 371.332 394.702 370.88 394.715 370.404C394.906 363.97 395.438 357.548 396.309 351.165C419.446 336.805 434.221 331.819 479.337 297.473C479.02 302.238 479.495 307.021 480.744 311.643C480.83 311.964 481.008 312.256 481.257 312.487C481.506 312.717 481.817 312.877 482.156 312.948C482.494 313.019 482.846 313 483.174 312.891C483.501 312.782 483.79 312.589 484.01 312.332C487.989 307.665 491.69 302.596 495.939 298.084C497.891 300.771 499.627 303.596 501.132 306.535C488.082 368.344 486.98 370.641 487.34 374.935C488.127 378.575 487.996 378.482 502.051 401.501C502.291 401.892 502.576 402.316 503.022 402.395C503.469 402.474 504.2 401.889 504.522 401.346C508.576 394.673 512.626 387.999 516.477 381.242C518.899 377.833 519.964 373.704 519.477 369.607C518.82 347.492 516.168 325.473 511.55 303.795C512.676 301.111 513.648 298.368 514.46 295.581C527.034 303.544 526.891 304.556 528.312 304.556C528.678 304.558 529.037 304.456 529.343 304.265C529.65 304.074 529.891 303.801 530.037 303.479C536.266 289.435 539.392 274.31 539.221 259.053C550.637 256.332 562.335 254.84 574.096 254.605C583.361 254.299 592.543 256.369 600.691 260.601C621.567 273.525 623.761 301.817 623.337 325.002C621.608 360.873 614.161 396.281 601.254 429.998C593.3 449.916 580.677 467.822 568.212 484.207C551.109 507.158 532.527 529.441 514.081 551.34C510.999 555.125 507.5 558.58 503.645 561.647C492.939 569.8 477.721 570.622 465.136 571.197C466.056 566.733 465.861 562.124 464.567 557.746C463.272 553.369 460.916 549.346 457.689 546.006C455.787 543.615 453.366 541.648 450.592 540.241C447.818 538.835 444.758 538.022 441.624 537.86C443.339 530.373 445.93 523.096 449.349 516.165C454.147 508.954 460.241 502.613 467.349 497.436L499.317 471.053C514.415 459.303 527.914 445.787 539.499 430.82C562.04 400.384 566.199 349.327 572.398 313.697C572.446 313.461 572.445 313.218 572.394 312.983C572.342 312.748 572.243 312.525 572.1 312.327C571.957 312.13 571.774 311.962 571.562 311.833C571.35 311.704 571.113 311.618 570.866 311.578C570.618 311.539 570.365 311.547 570.121 311.603C569.877 311.659 569.647 311.762 569.445 311.904C569.243 312.047 569.073 312.227 568.945 312.434C568.817 312.641 568.734 312.87 568.7 313.108C567.616 319.326 566.649 325.565 565.7 331.808L549.376 336.798C548.915 336.939 548.529 337.246 548.298 337.653C548.067 338.061 548.01 338.538 548.139 338.985C549.384 343.318 549.32 343.691 550.224 344.158C550.445 344.273 550.688 344.345 550.939 344.368C551.189 344.391 551.442 344.366 551.682 344.294L564.357 340.471C562.37 354.703 559.631 368.83 556.149 382.797C547.944 413.915 540.301 425.784 523.959 443.468C490.07 423.586 468.654 385.601 470.709 349.051C470.722 348.815 470.686 348.579 470.604 348.357C470.522 348.134 470.395 347.929 470.23 347.754C470.065 347.578 469.866 347.436 469.643 347.334C469.421 347.232 469.179 347.173 468.933 347.161C468.687 347.148 468.44 347.182 468.208 347.261C467.976 347.34 467.762 347.461 467.578 347.619C467.395 347.777 467.246 347.968 467.139 348.181C467.033 348.394 466.972 348.625 466.959 348.861C466.784 352.104 466.784 355.354 466.959 358.597C452.739 370.862 437.151 381.59 420.477 390.587C405.036 399.31 388.33 405.793 370.902 409.826C369.332 410.16 367.689 409.938 366.277 409.2C364.865 408.462 363.781 407.258 363.226 405.812C349.903 382.649 341.986 356.995 340.021 330.62C338.233 316.802 338.142 302.832 339.751 288.994C341.525 276.669 353.251 267.26 361.381 257.043C364.006 267.095 379.951 275.628 395.754 270.509C397.144 270.044 398.397 269.266 399.406 268.24C400.756 266.395 401.364 264.144 401.116 261.904L400.321 257.703C400.321 257.703 398.097 254.742 396.624 255.111C393.207 255.905 389.659 256.035 386.189 255.493C382.719 254.951 379.398 253.748 376.422 251.956C373.83 249.727 372.023 246.783 371.251 243.53C369.56 238.547 367.475 229.235 372.376 223.013C374.217 221.145 376.455 219.676 378.939 218.705C379.399 218.524 379.766 218.176 379.958 217.736C380.15 217.296 380.151 216.802 379.962 216.361C379.773 215.92 379.409 215.569 378.95 215.385C378.491 215.202 377.974 215.2 377.514 215.381C374.477 216.575 371.749 218.388 369.519 220.694C367.516 223.636 366.215 226.964 365.707 230.441C365.198 233.919 365.496 237.461 366.579 240.816C364.546 243.838 362.871 247.067 361.587 250.444C352.501 263.763 338.217 273.406 336.042 288.534C334.386 302.633 334.466 316.869 336.279 330.95C338.269 357.734 346.3 383.786 359.817 407.313C360.704 409.519 362.396 411.343 364.58 412.446C366.763 413.55 369.291 413.859 371.694 413.315C389.479 409.227 406.528 402.62 422.277 393.714C438.34 385.007 453.42 374.734 467.277 363.059C469.189 379.92 475.05 396.15 484.424 410.541C493.798 424.931 506.442 437.112 521.416 446.175C510.05 458.065 507.267 459.749 464.975 494.658C457.501 500.112 451.104 506.798 446.082 514.403C442.256 522.162 439.37 530.316 437.48 538.703C437.399 539.018 437.39 539.346 437.456 539.664C437.522 539.982 437.66 540.282 437.86 540.544C438.06 540.805 438.318 541.021 438.615 541.176C438.913 541.332 439.242 541.423 439.58 541.443C442.513 541.312 445.435 541.87 448.09 543.07C450.746 544.27 453.054 546.074 454.812 548.325C457.548 551.036 459.571 554.331 460.716 557.938C461.861 561.545 462.094 565.361 461.397 569.071C461.759 563.041 459.608 557.12 455.415 552.607C451.222 548.093 445.33 545.357 439.032 544.997C438.786 544.983 438.54 545.015 438.307 545.093C438.073 545.17 437.859 545.291 437.674 545.448C437.49 545.604 437.34 545.794 437.232 546.007C437.124 546.219 437.061 546.45 437.047 546.686C437.032 546.922 437.066 547.158 437.147 547.381C437.228 547.604 437.354 547.81 437.518 547.986C437.682 548.163 437.88 548.306 438.102 548.41C438.324 548.513 438.565 548.573 438.811 548.587C444.117 548.89 449.081 551.196 452.613 554.999C456.145 558.801 457.957 563.79 457.651 568.87C457.111 577.716 453.485 576.991 449.026 585.23C448.798 585.653 448.756 586.146 448.907 586.599C449.059 587.052 449.392 587.43 449.834 587.648C450.276 587.866 450.791 587.907 451.265 587.762C451.738 587.617 452.132 587.297 452.36 586.874C453.141 585.431 454.036 584.047 455.037 582.735C455.529 582.907 442.839 582.846 731.229 582.846C731.726 582.846 732.203 582.657 732.555 582.32C732.906 581.984 733.104 581.527 733.104 581.051C733.104 580.575 732.906 580.118 732.555 579.782C732.203 579.445 731.726 579.256 731.229 579.256L731.251 579.249ZM364.876 252.695C365.53 250.201 366.573 247.816 367.97 245.619C369.081 249.154 371.21 252.318 374.112 254.749C378.941 257.745 384.542 259.402 390.294 259.538C392.704 259.572 395.103 259.214 397.389 258.479V262.09C397.562 263.414 397.274 264.755 396.571 265.907C396 266.436 395.314 266.838 394.561 267.084C378.792 272.207 363.181 261.728 364.876 252.695ZM604.767 431.258C612.935 409.69 619.007 387.447 622.906 364.811C622.854 390.637 621.706 407.808 621.354 415.279C617.119 421.77 611.432 427.28 604.704 431.413L604.767 431.258ZM576.181 549.233L578.004 579.249H539.15C539.536 579.012 575.784 549.552 576.174 549.233H576.181Z" fill="#101010"/>
<path d="M575.999 579.248H579.749C579.703 561.206 577.999 543.202 574.656 525.445C574.617 525.209 574.529 524.983 574.398 524.78C574.266 524.577 574.094 524.402 573.89 524.263C573.687 524.125 573.457 524.027 573.214 523.975C572.97 523.923 572.718 523.918 572.473 523.96C572.227 524.003 571.993 524.091 571.784 524.221C571.575 524.351 571.395 524.52 571.254 524.717C571.114 524.915 571.016 525.137 570.967 525.371C570.917 525.605 570.917 525.846 570.966 526.081C574.268 543.628 575.952 561.419 575.999 579.248Z" fill="#0B0B0B"/>
<path d="M305.338 436.315C298.791 414.491 295.547 388.209 278.803 371.26C262.615 354.865 240.553 344.737 219.553 335.36L219.808 334.8C228.149 336.636 236.841 336.398 245.058 334.11C253.275 331.821 260.744 327.558 266.755 321.725C276.137 312.609 282.617 301.125 285.437 288.615C288.779 274.918 288.779 260.668 285.437 246.971C285.383 246.748 285.283 246.538 285.142 246.353C285.002 246.168 284.823 246.012 284.618 245.895C284.412 245.778 284.184 245.702 283.948 245.672C283.711 245.641 283.47 245.657 283.24 245.718C281.74 246.059 281.421 247.707 281.905 248.145C287.871 272.557 282.362 297.773 268.405 314.696C264.089 320.081 258.566 324.469 252.243 327.538C245.919 330.606 238.957 332.277 231.87 332.426C224.782 332.575 217.75 331.199 211.292 328.4C204.834 325.6 199.114 321.448 194.556 316.251C185.391 307.075 180.006 295.953 180.343 276.33C180.343 275.851 180.144 275.391 179.79 275.052C179.436 274.713 178.956 274.522 178.455 274.522C177.954 274.522 177.474 274.713 177.12 275.052C176.766 275.391 176.567 275.851 176.567 276.33C176.567 290.69 179.192 301.41 185.042 310.381L181.667 317.805C178.85 317.792 176.08 318.498 173.642 319.848C171.203 321.199 169.184 323.147 167.792 325.491C160.945 326.716 114.685 335.008 80.687 364.009C78.362 365.994 25.2283 415.679 50.1658 578.945C50.1949 579.184 50.2737 579.414 50.3976 579.623C50.5214 579.832 50.6878 580.015 50.8868 580.161C51.0858 580.307 51.3134 580.414 51.5562 580.474C51.799 580.535 52.0519 580.548 52.3001 580.513C52.5483 580.478 52.7867 580.396 53.0011 580.272C53.2155 580.147 53.4016 579.982 53.5484 579.788C53.6952 579.593 53.7998 579.372 53.8558 579.138C53.9118 578.904 53.9182 578.661 53.8745 578.425C33.5683 445.476 66.4145 388.054 78.7783 371.802C79.5283 371.443 83.327 365.208 95.7133 369.814C105.717 373.783 114.18 380.64 119.923 389.429C125.537 398.107 129.173 407.822 130.592 417.938C122.817 443.768 117.383 470.193 114.351 496.918C110.567 523.852 109.003 551.03 109.675 578.199C109.686 578.667 109.889 579.113 110.239 579.44C110.59 579.768 111.06 579.951 111.55 579.951H111.595C111.841 579.945 112.083 579.893 112.309 579.798C112.534 579.702 112.737 579.565 112.907 579.395C113.077 579.224 113.21 579.023 113.299 578.803C113.388 578.583 113.431 578.348 113.425 578.113C112.76 551.112 114.315 524.104 118.075 497.338C121.068 470.974 126.414 444.904 134.053 419.413C135.658 417.309 131.177 399.959 123.107 387.53C116.941 378.098 107.855 370.742 97.1158 366.486C93.509 365.086 89.6246 364.463 85.7383 364.662C116.863 340.505 155.863 331.494 166.498 329.397C165.544 334.397 165.972 339.549 167.74 344.342C170.889 354.538 175.21 364.368 180.625 373.651C180.76 373.884 180.948 374.084 181.175 374.239C181.401 374.393 181.661 374.497 181.935 374.544C182.209 374.59 182.49 374.578 182.758 374.507C183.027 374.437 183.275 374.31 183.486 374.136C186.718 371.472 189.997 368.856 193.322 366.288C194.272 368.811 195.42 371.262 196.757 373.619C196.757 373.666 196.757 373.716 196.731 373.766C194.192 394.084 193.23 414.554 193.855 435.008C193.247 439.675 198.411 438.745 202.855 438.569C211.356 438.232 227.507 437.758 227.26 437.747C227.564 437.762 227.868 437.706 228.145 437.583C228.421 437.46 228.663 437.274 228.847 437.042C229.032 436.809 229.155 436.537 229.205 436.249C229.255 435.961 229.231 435.666 229.135 435.388C221.972 415.284 215.635 394.649 210.332 373.999L213.478 367.333C217.811 371.152 221.951 375.166 225.883 379.363C226.125 379.621 226.441 379.806 226.79 379.896C227.14 379.986 227.51 379.978 227.855 379.871C228.199 379.764 228.504 379.564 228.733 379.295C228.961 379.026 229.103 378.699 229.142 378.354C230.61 365.14 227.877 351.809 221.301 340.106C238.401 347.782 255.696 355.942 269.848 367.961C270.879 381.838 267.196 395.663 259.348 407.372C259.089 407.756 258.993 408.219 259.078 408.668C261.171 419.546 263.35 429.644 265.742 439.542C265.854 440.006 266.154 440.409 266.576 440.661C266.998 440.914 267.507 440.995 267.992 440.888C268.477 440.781 268.897 440.494 269.161 440.09C269.425 439.686 269.51 439.199 269.398 438.734C267 428.772 264.833 418.759 262.9 408.704C270.198 397.551 273.966 384.613 273.748 371.454C292.21 388.88 294.523 413.296 301.727 437.306C301.792 437.536 301.903 437.751 302.056 437.94C302.208 438.128 302.399 438.286 302.615 438.403C302.832 438.52 303.071 438.595 303.318 438.623C303.566 438.651 303.816 438.631 304.056 438.565C304.295 438.5 304.518 438.389 304.712 438.24C304.906 438.09 305.067 437.906 305.186 437.696C305.305 437.487 305.379 437.256 305.404 437.019C305.428 436.782 305.404 436.543 305.331 436.315H305.338ZM187.54 313.874C194.561 323.323 204.607 330.325 216.156 333.82L210.606 345.976C210.448 346.322 210.409 346.707 210.493 347.076C210.577 347.445 210.781 347.78 211.075 348.031C211.369 348.283 211.739 348.44 212.131 348.479C212.524 348.518 212.919 348.437 213.261 348.248C213.977 357.101 202.446 356.732 195.865 351.971C192.603 349.569 189.689 346.764 187.198 343.628C183.629 339.876 181.179 335.275 180.103 330.306L187.54 313.874ZM182.788 369.964C178.127 361.4 174.281 352.451 171.298 343.226C166.926 330.302 172.112 322.26 180.028 321.442L178.191 325.509C177.754 325.53 177.338 325.696 177.015 325.979C176.692 326.263 176.484 326.645 176.425 327.06C175.416 334.294 180.193 340.846 184.24 345.829C187.975 350.86 192.986 354.898 198.801 357.564C193.359 361.573 188.02 365.708 182.788 369.964ZM225.748 373.888C220.442 368.47 214.78 363.382 208.798 358.652C215.586 357.374 219.223 351.472 215.867 343.456L217.236 340.462C223.286 350.621 226.235 362.203 225.748 373.888Z" fill="black"/>
<path d="M265.686 290.136C265.478 290.263 265.246 290.35 265.003 290.391C264.76 290.431 264.511 290.426 264.271 290.375C264.03 290.323 263.802 290.227 263.6 290.091C263.399 289.956 263.227 289.783 263.095 289.584C258.268 282.328 253.951 274.772 250.172 266.967C249.702 266.037 249.4 265.038 249.28 264.012C249.305 262.746 249.643 261.503 250.266 260.386C251.52 257.821 252.99 255.357 254.661 253.019C254.796 252.816 254.972 252.64 255.179 252.503C255.386 252.366 255.62 252.27 255.867 252.221C256.113 252.172 256.368 252.171 256.615 252.219C256.862 252.266 257.096 252.361 257.304 252.497C257.512 252.633 257.689 252.808 257.825 253.011C257.961 253.214 258.052 253.441 258.094 253.679C258.136 253.917 258.128 254.16 258.07 254.395C258.011 254.629 257.904 254.85 257.755 255.044C255.704 257.748 254.105 260.741 253.015 263.915C253.133 264.439 253.316 264.947 253.559 265.43C257.269 273.1 261.509 280.525 266.249 287.656C266.518 288.056 266.609 288.542 266.504 289.008C266.398 289.473 266.104 289.879 265.686 290.136Z" fill="black"/>
<path d="M320.891 240.236C320.768 235.723 319.881 231.259 318.266 227.018C315.926 220.774 312.192 215.095 307.324 210.374C312.117 209.777 316.591 207.745 320.108 204.569C320.403 204.301 320.598 203.949 320.666 203.565C320.733 203.182 320.669 202.787 320.482 202.442C320.295 202.096 319.995 201.818 319.629 201.65C319.263 201.481 318.849 201.431 318.45 201.507C315.225 202.112 311.881 201.54 309.075 199.902C302.089 196.671 297.33 191.581 290.933 187.036L278.854 178.596C268.368 170.424 256.378 164.204 243.503 160.254C232.364 157.449 220.679 157.291 209.462 159.793C198.245 162.296 187.837 167.384 179.141 174.614C163.241 187.973 154.016 207.086 152.415 229.832C150.81 246.012 161.126 254.625 173.67 265.854C181.958 273.271 181.624 275.906 189.544 279.496C189.799 279.61 190.077 279.668 190.358 279.665C190.639 279.662 190.916 279.598 191.168 279.479C191.42 279.36 191.641 279.188 191.814 278.976C191.988 278.764 192.109 278.517 192.169 278.254C193.223 273.609 197.771 258.15 211.901 254.144C223.721 250.769 251.704 244.946 260.198 237.127C260.996 240.876 260.917 244.748 259.966 248.465C259.015 252.181 257.215 255.649 254.696 258.62C254.474 258.9 254.341 259.237 254.317 259.588C254.292 259.939 254.375 260.289 254.557 260.595C254.738 260.901 255.009 261.149 255.337 261.309C255.664 261.468 256.034 261.532 256.399 261.492C259.504 261.151 264.874 260.523 265.841 260.186C268.932 259.342 271.865 258.04 274.534 256.326C279.259 253.134 283.381 249.193 286.721 244.673C292.219 252.799 294.348 262.597 292.691 272.148C292.623 272.528 292.685 272.919 292.867 273.263C293.05 273.607 293.343 273.885 293.703 274.057C294.064 274.229 294.473 274.285 294.869 274.218C295.266 274.15 295.629 273.961 295.905 273.68C300.244 269.275 303.609 264.077 305.8 258.396C307.991 252.716 308.962 246.672 308.655 240.624C311.707 244.044 314.043 247.994 315.536 252.259C315.703 252.698 316.042 253.058 316.481 253.262C316.92 253.466 317.425 253.498 317.888 253.351C318.351 253.204 318.737 252.89 318.962 252.476C319.188 252.062 319.235 251.579 319.095 251.132C318.623 249.746 320.933 242.929 320.891 240.236Z" fill="black"/>
<path d="M137.715 262.536C137.961 266.497 138.807 270.389 140.206 273.986C141.604 277.583 143.527 280.813 145.863 283.49C148.198 286.168 150.901 288.239 153.814 289.584C156.727 290.929 159.792 291.521 162.833 291.327C165.874 291.132 168.83 290.155 171.53 288.451C174.231 286.746 176.621 284.349 178.564 281.398C180.507 278.447 181.964 275 182.85 271.257C183.737 267.514 184.035 263.549 183.728 259.592C183.482 255.63 182.636 251.738 181.237 248.141C179.839 244.545 177.916 241.314 175.58 238.637C173.245 235.959 170.542 233.888 167.629 232.543C164.716 231.198 161.651 230.606 158.61 230.8C155.569 230.995 152.613 231.972 149.913 233.677C147.212 235.381 144.822 237.778 142.879 240.729C140.936 243.68 139.479 247.127 138.593 250.87C137.706 254.613 137.408 258.578 137.715 262.536Z" fill="white"/>
<path d="M283.401 185.16C286.693 186.844 286.888 186.955 289.401 188.391C284.31 178.431 275.955 170.339 265.611 165.35C234.336 150.362 193.633 158.289 177.437 189.906C171.099 202.271 167.249 215.668 166.089 229.396C168.263 229.397 170.415 229.82 172.413 230.641C174.411 231.461 176.215 232.66 177.714 234.167C182.372 215.043 187.618 196.436 203.443 183.232C226.686 163.835 261.924 161.951 283.401 185.16Z" fill="white"/>
<path d="M291.078 187.587C285.764 177.301 277.123 168.931 266.44 163.725C233.815 148.288 192.318 156.713 175.75 189.099C169.513 201.234 165.648 214.36 164.346 227.828C159.553 227.822 154.844 229.034 150.7 231.34C146.556 233.646 143.126 236.963 140.759 240.953C136.915 247.77 135.223 255.51 135.889 263.23C136.555 270.951 139.549 278.32 144.509 284.442C155.151 296.526 177.393 295.359 187.345 287.569C191.286 284.261 194.415 280.161 196.509 275.561C198.603 270.961 199.609 265.975 199.458 260.96C199.225 248.772 193.566 234.441 180.708 229.91C185.283 211.942 190.833 196.164 204.685 184.575C210.673 179.487 217.66 175.594 225.239 173.123C232.818 170.652 240.836 169.654 248.823 170.187C261.883 171.279 273.979 177.221 282.524 186.74C285.899 188.474 285.963 188.492 288.438 189.917C288.784 190.114 289.188 190.197 289.589 190.157C289.989 190.116 290.366 189.953 290.662 189.692C290.958 189.43 291.158 189.084 291.233 188.705C291.308 188.326 291.254 187.934 291.078 187.587ZM176.886 280.242C169.386 291.504 156.351 292.329 147.366 282.13C142.79 276.441 140.081 269.579 139.581 262.415C139.081 255.25 140.813 248.104 144.558 241.883C146.079 239.259 148.277 237.053 150.943 235.473C153.608 233.894 156.651 232.995 159.783 232.861C177.974 232.861 188.999 262.048 176.886 280.242ZM202.214 181.876C187.589 194.128 181.814 210.42 177.089 228.941C174.13 228.355 171.139 227.928 168.13 227.663C169.436 214.804 173.158 202.277 179.118 190.686C194.868 159.927 234.201 152.474 264.764 166.941C272.519 170.722 279.157 176.31 284.065 183.19C261.749 160.013 225.711 162.332 202.214 181.869V181.876Z" fill="#121212"/>
<path d="M157.875 239.613C142.403 240.6 136.395 264.743 147.975 277.886C149.436 279.844 151.395 281.413 153.667 282.442C155.939 283.471 158.448 283.928 160.956 283.768C163.464 283.608 165.888 282.837 167.997 281.527C170.106 280.218 171.83 278.415 173.006 276.288C182.663 261.795 173.4 238.622 157.875 239.613Z" fill="#090808"/>
<path d="M236.341 312.01C234.684 312.038 233.047 311.668 231.578 310.933C230.284 309.993 229.226 308.787 228.485 307.404C225.668 302.928 223.208 298.255 221.127 293.424C221.028 293.206 220.975 292.97 220.972 292.732C220.969 292.494 221.016 292.257 221.109 292.036C221.203 291.815 221.341 291.614 221.517 291.445C221.692 291.276 221.901 291.142 222.131 291.051C222.361 290.96 222.608 290.914 222.857 290.915C223.106 290.916 223.352 290.965 223.581 291.058C223.81 291.151 224.017 291.287 224.191 291.458C224.365 291.629 224.501 291.831 224.592 292.053C226.621 296.752 229.013 301.298 231.751 305.655C232.21 306.533 232.858 307.307 233.652 307.928C234.768 308.352 235.978 308.499 237.169 308.356C238.36 308.213 239.494 307.784 240.466 307.109C243.424 305.579 246.236 303.804 248.87 301.803C249.258 301.506 249.755 301.369 250.249 301.422C250.743 301.476 251.196 301.715 251.506 302.087C251.816 302.459 251.959 302.934 251.904 303.408C251.848 303.881 251.598 304.314 251.21 304.611C248.47 306.698 245.543 308.548 242.461 310.139C240.68 311.368 238.536 312.023 236.341 312.01Z" fill="black"/>
<path d="M276.027 309.848C275.729 309.468 275.284 309.216 274.792 309.148C274.3 309.081 273.8 309.204 273.402 309.489C273.004 309.775 272.741 310.2 272.671 310.672C272.601 311.143 272.729 311.622 273.027 312.002C274.588 313.909 275.735 316.095 276.4 318.433C277.065 320.77 277.235 323.211 276.901 325.612C276.517 326.474 275.959 327.254 275.259 327.909C274.559 328.564 273.732 329.081 272.823 329.429C271.915 329.778 270.944 329.951 269.965 329.94C268.987 329.929 268.02 329.733 267.121 329.364C269.348 322.733 260.521 317.118 253.193 317.667C251.264 317.857 249.455 318.649 248.044 319.922C246.633 321.196 245.7 322.879 245.389 324.711C244.602 332.501 258.098 338.96 265.069 332.462C270.852 334.749 278.592 332.911 280.497 326.614C282.274 320.755 278.794 313.377 276.027 309.848Z" fill="black"/>
<path d="M230.599 416.261C230.101 416.261 229.624 416.071 229.273 415.735C228.921 415.398 228.724 414.942 228.724 414.466V411.13C228.723 410.666 228.911 410.219 229.247 409.885C229.584 409.55 230.043 409.353 230.527 409.335L251.527 408.56C251.78 408.55 252.032 408.59 252.268 408.676C252.504 408.761 252.72 408.892 252.902 409.06C253.084 409.227 253.229 409.429 253.328 409.651C253.427 409.874 253.478 410.113 253.477 410.355V413.73C253.478 414.195 253.289 414.642 252.952 414.977C252.615 415.311 252.155 415.508 251.67 415.525L230.599 416.261Z" fill="black"/>
<path d="M153.565 582.18H18.749C18.2517 582.18 17.7748 581.99 17.4232 581.654C17.0716 581.317 16.874 580.861 16.874 580.385C16.874 579.909 17.0716 579.452 17.4232 579.115C17.7748 578.779 18.2517 578.59 18.749 578.59H153.565C154.063 578.59 154.539 578.779 154.891 579.115C155.243 579.452 155.44 579.909 155.44 580.385C155.44 580.861 155.243 581.317 154.891 581.654C154.539 581.99 154.063 582.18 153.565 582.18Z" fill="black"/>
<path d="M268.369 293.399C268.369 297.193 269.943 300.832 272.746 303.515C275.548 306.198 279.349 307.705 283.312 307.705C287.276 307.705 291.077 306.198 293.879 303.515C296.682 300.832 298.256 297.193 298.256 293.399C298.256 289.604 296.682 285.966 293.879 283.283C291.077 280.6 287.276 279.093 283.312 279.093C279.349 279.093 275.548 280.6 272.746 283.283C269.943 285.966 268.369 289.604 268.369 293.399Z" fill="white"/>
<path d="M416.435 625.617L466.317 626.199L504.852 591.013H416.435V625.617Z" fill="white"/>
<path d="M438.072 625.617H179.217C175.764 625.618 172.406 624.533 169.661 622.528C166.915 620.523 164.934 617.709 164.022 614.521L119.933 459.813C119.402 458.007 119.312 456.108 119.672 454.264C120.031 452.42 120.83 450.679 122.006 449.178C123.182 447.678 124.704 446.456 126.453 445.61C128.202 444.763 130.131 444.314 132.091 444.297L388.76 440.768C392.44 440.657 396.05 441.748 398.996 443.863C401.942 445.978 404.048 448.99 404.967 452.403L447.751 613.824C448.153 615.231 448.205 616.708 447.903 618.137C447.601 619.566 446.954 620.907 446.013 622.054C445.072 623.2 443.864 624.12 442.485 624.739C441.106 625.357 439.595 625.658 438.072 625.617Z" fill="white"/>
<path d="M504.854 589.219H453.025L414.64 444.441C413.637 440.626 411.298 437.256 408.013 434.893C404.727 432.53 400.695 431.317 396.588 431.456L139.949 434.985C131.785 434.985 126.329 441.088 121.949 445.967C119.959 447.763 118.542 450.064 117.866 452.602C117.189 455.139 117.28 457.808 118.128 460.298L162.217 615.006C163.181 618.366 165.21 621.358 168.025 623.568V631.523C168.027 633.11 168.687 634.631 169.859 635.753C171.031 636.875 172.619 637.506 174.277 637.508C481.255 637.508 460.814 637.763 461.662 637.109L505.537 603.195C506.274 602.619 506.868 601.893 507.274 601.069C507.68 600.245 507.889 599.345 507.884 598.434V592.536C507.825 591.743 507.497 590.99 506.95 590.391C506.403 589.792 505.668 589.381 504.854 589.219ZM165.828 614.051L121.739 459.322C121.281 457.824 121.19 456.246 121.473 454.709C121.755 453.172 122.404 451.718 123.368 450.46C124.333 449.202 125.587 448.174 127.034 447.455C128.481 446.736 130.081 446.346 131.711 446.315L388.409 442.786C391.667 442.673 394.866 443.632 397.475 445.504C400.083 447.375 401.942 450.046 402.742 453.072L445.533 614.482C445.861 615.74 445.841 617.058 445.476 618.307C445.11 619.556 444.411 620.692 443.448 621.604H171.573C168.766 619.835 166.724 617.151 165.828 614.051ZM459.847 621.611H450.19C456.149 616.334 458.725 610.748 457.435 605.855L453.978 592.809H499.289L459.847 621.611Z" fill="black"/>
</svg>
